<?xml version="1.0" encoding="utf-8"?>
<!-- Generator: Adobe Illustrator 16.0.0, SVG Export Plug-In . SVG Version: 6.00 Build 0)  -->
<!DOCTYPE svg PUBLIC "-//W3C//DTD SVG 1.1//EN" "http://www.w3.org/Graphics/SVG/1.1/DTD/svg11.dtd">
<svg version="1.1" id="Layer_1" xmlns="http://www.w3.org/2000/svg" xmlns:xlink="http://www.w3.org/1999/xlink" x="0px" y="0px"
	 width="594.377px" height="142.499px" viewBox="0 0 594.377 142.499" enable-background="new 0 0 594.377 142.499"
	 xml:space="preserve">
<g id="nVAaBF_1_">
	<g>
		<path fill-rule="evenodd" clip-rule="evenodd" d="M239.918,96.844c-2.664,4.062-5.983,7.374-10.459,9.375
			c-14.11,6.306-31.903,1.447-40.364-11.902c-9.935-15.676-10.175-32.365-1.869-48.728c5.956-11.731,16.477-16.637,29.504-16.369
			c7.622,0.156,14.706,1.782,20.402,7.269c1.292,1.245,2.435,2.646,4.019,4.385c0-3.54,0-6.614,0-9.797c4.771,0,9.243,0,13.966,0
			c0.066,0.701,0.194,1.409,0.194,2.118c0.007,24.492,0.102,48.985-0.029,73.477c-0.1,18.498-9.478,30.274-27.53,34.393
			c-13.014,2.97-25.64,1.27-37.685-4.533c-0.357-0.172-0.678-0.42-1.125-0.701c1.612-3.816,3.185-7.542,4.586-10.862
			c5.262,1.434,10.203,3.221,15.299,4.059c6.694,1.101,13.432,0.816,19.837-2.005c5.589-2.462,9.833-6.331,10.823-12.458
			c0.931-5.754,0.938-11.656,1.352-17.494C240.534,96.994,240.226,96.919,239.918,96.844z M196.739,67.822
			c0.059,6.983,1.274,13.592,5.451,19.384c5.043,6.992,12.034,9.444,20.31,8.437c8.175-0.996,13.793-5.474,16.383-13.359
			c2.108-6.424,2.197-13.04,1.58-19.739c-1.187-12.865-8.416-20-21.272-20.487c-7.887-0.299-14.298,2.476-18.478,9.531
			C197.732,56.623,196.857,62.141,196.739,67.822z"/>
		<path fill-rule="evenodd" clip-rule="evenodd" d="M527.902,135.974c1.695-4.006,3.268-7.729,4.648-10.994
			c5.232,1.421,10.101,3.154,15.118,4.006c6.783,1.152,13.595,0.876,20.075-1.99c5.491-2.429,9.723-6.219,10.713-12.251
			c0.955-5.819,0.986-11.79,1.424-17.693c-0.248-0.036-0.497-0.071-0.745-0.106c-1.562,1.777-2.972,3.721-4.714,5.302
			c-6.531,5.929-14.461,7.09-22.859,6.271c-17.77-1.733-27.784-16.218-30.061-30.779c-1.609-10.287-1.072-20.451,3.518-30.043
			c5.992-12.524,17.148-19.021,31.045-18.482c7.639,0.296,14.672,1.963,20.324,7.481c1.217,1.188,2.287,2.526,3.758,4.166
			c0-3.489,0-6.502,0-9.708c4.733,0,9.26,0,13.975,0c0.072,0.59,0.213,1.221,0.213,1.852c0.008,24.659,0.115,49.319-0.041,73.977
			c-0.113,18.049-9.279,29.57-26.859,33.883C553.799,144.208,540.702,142.266,527.902,135.974z M558.447,42.011
			c-7.967,0.018-13.832,2.444-18.107,8.56c-5.977,8.548-6.347,27.131,0.887,36.71c5.189,6.874,12.088,9.387,20.363,8.352
			c8.174-1.023,13.793-5.509,16.33-13.416c2.332-7.265,2.517-14.725,1.125-22.194C576.799,47.967,569.844,42.163,558.447,42.011z"/>
		<path fill-rule="evenodd" clip-rule="evenodd" d="M13.779,97.858c0,4.326,0,7.895,0,11.667c-4.596,0-9.112,0-13.779,0
			C0,73.039,0,36.597,0,0c4.897,0,9.677,0,14.561,0c0,14.071,0,28.026,0,42.224c0.382-0.291,0.743-0.451,0.936-0.729
			c6.223-8.961,15.102-12.5,25.644-12.223c14.465,0.38,25.364,8.236,30.182,22.029c4.886,13.986,4.896,28.025-1.754,41.497
			c-7.41,15.013-23.959,22.02-40.04,17.357c-5.817-1.687-10.206-5.463-13.989-10.035C15.083,99.569,14.659,98.991,13.779,97.858z
			 M59.465,69.862c0.061-7.05-1.55-14.178-6.396-20.235c-9.957-12.445-30.368-8.977-36.297,6.309
			c-3.861,9.953-3.613,20.094,0.706,29.892c3.352,7.603,9.003,12.534,17.693,12.995c8.911,0.473,15.573-3.452,20.172-10.929
			C58.626,82.555,59.588,76.593,59.465,69.862z"/>
		<path fill-rule="evenodd" clip-rule="evenodd" d="M503.182,109.669c-4.635,0-8.961,0-13.484,0c0-4.424,0-8.79,0-13.634
			c-0.566,0.76-0.965,1.197-1.254,1.699c-9.633,16.809-31.824,17.29-44.172,6.565c-9.167-7.962-10.855-28.758,5.658-37.237
			c6.549-3.364,13.576-4.983,20.824-5.633c5.053-0.453,10.141-0.509,15.214-0.75c0.734-0.035,1.467-0.109,2.169-0.164
			c1.156-11.542-4.835-18.014-14.564-18.698c-8.444-0.594-16.123,1.749-23.12,6.445c-0.413,0.277-0.839,0.535-1.437,0.916
			c-2.013-3.571-3.998-7.092-6.02-10.677c3.511-3.362,7.865-4.787,12.168-6.312c9.002-3.19,18.194-4.032,27.518-1.828
			c11.238,2.658,18.498,10.776,20.07,22.204c0.327,2.385,0.523,4.807,0.531,7.213c0.047,15.831,0.027,31.662,0.022,47.494
			C503.305,108.006,503.23,108.737,503.182,109.669z M488.373,71.593c-5.109,0.247-10.086,0.279-15.014,0.782
			c-5.381,0.549-10.729,1.54-15.359,4.646c-7.06,4.733-7.418,14.248-0.705,19.487c4.42,3.45,9.531,3.687,14.721,2.507
			c5.838-1.327,9.58-5.387,12.531-10.328C487.614,83.548,488.947,78.035,488.373,71.593z"/>
		<path fill-rule="evenodd" clip-rule="evenodd" d="M92.898,31.098c5.016,0,9.724,0,14.756,0c0,1.113-0.001,2.087,0,3.061
			c0.031,15.58,0.04,31.16,0.121,46.74c0.01,1.899,0.236,3.837,0.659,5.689c1.888,8.248,5.776,11.945,16.605,11.004
			c11.929-1.036,18.426-8.786,21.724-19.519c1.104-3.594,1.42-7.532,1.488-11.324c0.19-10.828,0.067-21.661,0.067-32.493
			c0-0.985,0-1.971,0-3.128c5.011,0,9.789,0,14.721,0c0,26.131,0,52.171,0,78.408c-4.606,0-9.217,0-14.118,0
			c0-5.131,0-10.295,0-15.707c-2.254,2.867-4.051,5.654-6.332,7.964c-9.865,9.997-21.798,11.999-34.731,7.794
			c-9.069-2.948-12.972-10.445-14.402-19.363c-0.473-2.944-0.632-5.966-0.644-8.953c-0.062-15.914-0.032-31.828-0.028-47.741
			C92.787,32.791,92.853,32.051,92.898,31.098z"/>
		<path fill-rule="evenodd" clip-rule="evenodd" d="M350.105,31.067c4.674,0,9.227,0,13.971,0c0,5.212,0,10.377,0,15.787
			c2.349-2.912,4.376-5.688,6.67-8.223c9.43-10.426,25.281-11.363,35.788-7.262c8.503,3.318,12.282,10.32,13.698,18.831
			c0.531,3.186,0.719,6.458,0.734,9.693c0.073,15.743,0.036,31.486,0.031,47.229c0,0.743-0.066,1.485-0.111,2.416
			c-4.799,0-9.498,0-14.512,0c-0.07-0.967-0.206-2.001-0.211-3.036c-0.079-15.741-0.119-31.482-0.236-47.224
			c-0.014-1.814-0.275-3.663-0.691-5.432c-1.871-7.961-6.397-11.31-14.766-11.063c-12.577,0.37-23.418,10.052-25.165,22.57
			c-0.345,2.464-0.513,4.971-0.524,7.458c-0.055,11.328-0.024,22.657-0.025,33.985c0,0.893,0,1.787,0,2.806
			c-4.977,0-9.697,0-14.65,0C350.105,83.54,350.105,57.442,350.105,31.067z"/>
		<path fill-rule="evenodd" clip-rule="evenodd" d="M273.578,99.971c2.264-3.324,4.549-6.681,6.984-10.256
			c4.429,4.035,9.623,6.366,15.147,7.927c4.72,1.334,9.526,1.721,14.213-0.248c3.399-1.427,5.994-3.64,6.458-7.578
			c0.465-3.943-1.673-6.657-4.8-8.353c-4.591-2.488-9.4-4.584-14.163-6.745c-4.917-2.231-10.039-4.027-14.167-7.74
			c-11.938-10.738-9.082-28.527,5.768-34.7c12.015-4.995,23.9-3.954,35.504,1.628c0.15,0.072,0.293,0.158,0.438,0.241
			c4.875,2.799,4.953,3.058,2.365,7.909c-1.096,2.055-2.194,4.108-3.299,6.159c-0.077,0.142-0.219,0.249-0.392,0.439
			c-5.466-4.124-11.619-6.573-18.44-6.49c-3.219,0.039-6.708,0.671-9.576,2.063c-5.623,2.729-6.159,9.884-1.092,13.547
			c3.131,2.264,6.752,3.9,10.275,5.56c4.812,2.267,9.902,3.984,14.579,6.487c6.162,3.297,10.814,8.127,11.931,15.412
			c1.508,9.827-2.76,17.94-11.753,22.722C306.202,115.06,284.047,111.263,273.578,99.971z"/>
	</g>
</g>
</svg>
